<?xml version="1.0" encoding="UTF-8" standalone="no"?>
<!-- Generator: Adobe Illustrator 17.1.0, SVG Export Plug-In . SVG Version: 6.00 Build 0)  -->

<svg
   xmlns:dc="http://purl.org/dc/elements/1.1/"
   xmlns:cc="http://creativecommons.org/ns#"
   xmlns:rdf="http://www.w3.org/1999/02/22-rdf-syntax-ns#"
   xmlns:svg="http://www.w3.org/2000/svg"
   xmlns="http://www.w3.org/2000/svg"
   xmlns:sodipodi="http://sodipodi.sourceforge.net/DTD/sodipodi-0.dtd"
   xmlns:inkscape="http://www.inkscape.org/namespaces/inkscape"
   version="1.1"
   id="Layer_1"
   x="0px"
   y="0px"
   viewBox="0 0 50 50"
   enable-background="new 0 0 50 50"
   xml:space="preserve"
   sodipodi:docname="menu.svg"
   inkscape:version="0.92.5 (2060ec1f9f, 2020-04-08)"><metadata
   id="metadata13"><rdf:RDF><cc:Work
       rdf:about=""><dc:format>image/svg+xml</dc:format><dc:type
         rdf:resource="http://purl.org/dc/dcmitype/StillImage" /></cc:Work></rdf:RDF></metadata><defs
   id="defs11" /><sodipodi:namedview
   pagecolor="#ffffff"
   bordercolor="#666666"
   borderopacity="1"
   objecttolerance="10"
   gridtolerance="10"
   guidetolerance="10"
   inkscape:pageopacity="0"
   inkscape:pageshadow="2"
   inkscape:window-width="980"
   inkscape:window-height="480"
   id="namedview9"
   showgrid="false"
   inkscape:zoom="4.72"
   inkscape:cx="28.813558"
   inkscape:cy="25.3059"
   inkscape:window-x="0"
   inkscape:window-y="48"
   inkscape:window-maximized="0"
   inkscape:current-layer="Layer_1" />
<path
   d="m 15.007064,11.71321 18.215545,21.5358 c 0.335165,0.396257 0.927865,0.43084 1.324589,0.07577 0.396725,-0.35508 0.445384,-0.963698 0.110214,-1.359956 L 16.441872,10.429021 c -0.335165,-0.396259 -0.927865,-0.4308433 -1.32459,-0.07577 -0.396725,0.355079 -0.445995,0.962978 -0.110214,1.359955 z"
   id="path2"
   style="fill:#404040;fill-opacity:0.94132655;stroke-width:0.95124447"
   inkscape:connector-curvature="0" />

<path
   d="M 16.197778,32.574489 35.226406,12.21378 c 0.350127,-0.374637 0.288349,-0.981771 -0.139623,-1.356723 -0.427971,-0.374953 -1.058071,-0.37398 -1.408196,6.53e-4 L 14.649956,31.218422 c -0.350126,0.374637 -0.288347,0.981771 0.139624,1.356723 0.427971,0.374954 1.057436,0.37466 1.408198,-6.52e-4 z"
   id="path6"
   style="fill:#404040;stroke-width:0.97740173;opacity:0.98;fill-opacity:0.96683675"
   inkscape:connector-curvature="0" />
</svg>